<svg xmlns="http://www.w3.org/2000/svg" width="512" height="512" viewBox="0 0 512 512">
  <defs>
    <radialGradient id="bg" cx="50%" cy="50%" r="70%">
      <stop offset="0%" stop-color="#4338CA"/>
      <stop offset="100%" stop-color="#1E1B4B"/>
    </radialGradient>
  </defs>
  <rect width="512" height="512" rx="96" fill="url(#bg)"/>
  <g transform="translate(116, 116) scale(11.667)">
    <path
      d="M2.586 17.414A2 2 0 0 0 2 18.828V21a1 1 0 0 0 1 1h3a1 1 0 0 0 1-1v-1a1 1 0 0 1 1-1h1a1 1 0 0 0 1-1v-1a1 1 0 0 1 1-1h.172a2 2 0 0 0 1.414-.586l.814-.814a6.5 6.5 0 1 0-4-4z"
      fill="none"
      stroke="#FFFFFF"
      stroke-width="2"
      stroke-linecap="round"
      stroke-linejoin="round"/>
    <circle cx="16.5" cy="7.5" r="0.5" fill="#FFFFFF"/>
  </g>
</svg>
